<svg xmlns="http://www.w3.org/2000/svg" width="35" height="35" viewBox="0 0 35 35">
  <g id="그룹_112" data-name="그룹 112" transform="translate(-340.5 -1362.94)">
    <path id="패스_1" data-name="패스 1" d="M358,1362.94a17.5,17.5,0,1,0,17.5,17.5A17.521,17.521,0,0,0,358,1362.94Zm0,32a14.5,14.5,0,1,1,14.5-14.5A14.517,14.517,0,0,1,358,1394.94Z"/>
    <path id="패스_2" data-name="패스 2" d="M364.771,1373.67a1.5,1.5,0,0,0-2.121,0l-4.65,4.65-4.65-4.65a1.5,1.5,0,0,0-2.121,2.121l4.65,4.65-4.65,4.651a1.5,1.5,0,1,0,2.121,2.121l4.65-4.65,4.65,4.65a1.5,1.5,0,0,0,2.121-2.121l-4.65-4.651,4.65-4.65A1.5,1.5,0,0,0,364.771,1373.67Z"/>
  </g>
</svg>
