<svg xmlns="http://www.w3.org/2000/svg" width="17" height="20" viewBox="0 0 17 20">
  <path id="contact_support_FILL0_wght400_GRAD0_opsz24" d="M129-860l-.25-3h-.25a8.2,8.2,0,0,1-6.025-2.475A8.2,8.2,0,0,1,120-871.5a8.2,8.2,0,0,1,2.475-6.025A8.2,8.2,0,0,1,128.5-880a8.28,8.28,0,0,1,3.313.662,8.584,8.584,0,0,1,2.7,1.825,8.584,8.584,0,0,1,1.825,2.7A8.281,8.281,0,0,1,137-871.5a10.679,10.679,0,0,1-.613,3.6,12.738,12.738,0,0,1-1.675,3.2,14.164,14.164,0,0,1-2.525,2.675A15.652,15.652,0,0,1,129-860Zm2-3.65a12.452,12.452,0,0,0,2.887-3.513A8.823,8.823,0,0,0,135-871.5a6.275,6.275,0,0,0-1.887-4.613A6.275,6.275,0,0,0,128.5-878a6.275,6.275,0,0,0-4.613,1.888A6.275,6.275,0,0,0,122-871.5a6.275,6.275,0,0,0,1.887,4.612A6.274,6.274,0,0,0,128.5-865H131Zm-2.525-2.375a.988.988,0,0,0,.725-.3.988.988,0,0,0,.3-.725.988.988,0,0,0-.3-.725.988.988,0,0,0-.725-.3.988.988,0,0,0-.725.3.988.988,0,0,0-.3.725.988.988,0,0,0,.3.725A.988.988,0,0,0,128.475-866.025Zm-.725-3.175h1.5a2.575,2.575,0,0,1,.15-1.05,5.934,5.934,0,0,1,.95-1.1,4.615,4.615,0,0,0,.75-.975,2.231,2.231,0,0,0,.3-1.125,2.225,2.225,0,0,0-.863-1.913A3.333,3.333,0,0,0,128.5-876a2.829,2.829,0,0,0-1.85.612,3.258,3.258,0,0,0-1.05,1.487l1.4.55a2.315,2.315,0,0,1,.475-.837,1.269,1.269,0,0,1,1.025-.413,1.293,1.293,0,0,1,1.013.375,1.207,1.207,0,0,1,.337.825,1.249,1.249,0,0,1-.25.763,6.207,6.207,0,0,1-.6.688,4.023,4.023,0,0,0-1.062,1.187A4.453,4.453,0,0,0,127.75-869.2ZM128.5-870.825Z" transform="translate(-120 880)" fill="#7e8396"/>
</svg>
