<svg xmlns="http://www.w3.org/2000/svg" width="70.635" height="48.593" viewBox="0 0 70.635 48.593">
  <g id="그룹_196" data-name="그룹 196" transform="translate(-11.658 -10.106)">
    <path id="패스_20" data-name="패스 20" d="M64.318,49.235a1.9,1.9,0,0,0,.278-.021,13.219,13.219,0,0,0,7.118-3.528,12.641,12.641,0,0,0,2.132-2.744,12.631,12.631,0,0,0,2.132,2.744,13.216,13.216,0,0,0,7.117,3.527,1.907,1.907,0,0,0,.278.021,1.8,1.8,0,0,0,.274-3.577,9.365,9.365,0,0,1-7.966-8.514h6.491a1.8,1.8,0,0,0,0-3.6H65.519a1.8,1.8,0,1,0,0,3.6h6.49a9.365,9.365,0,0,1-7.965,8.514,1.8,1.8,0,0,0,.273,3.577Z" transform="translate(-30.21 -13.922)" fill="#3caf87"/>
    <path id="패스_21" data-name="패스 21" d="M134.875,44.1a6,6,0,0,0,6-6,1.8,1.8,0,0,0-3.6,0,2.4,2.4,0,0,1-2.4,2.4h-1.488a10.268,10.268,0,0,0-11.814-16.121v4.132A6.669,6.669,0,1,1,125.924,40.5h-.693a6.679,6.679,0,0,1-6.329-6.659V12.035a1.8,1.8,0,0,0-3.6,0V33.842h0a10.223,10.223,0,0,0,2.465,6.659h-5.686a1.8,1.8,0,0,0,0,3.6h7.04v2.328h-1.88a2.992,2.992,0,0,0-2.988,2.989v6.37a2.992,2.992,0,0,0,2.988,2.989h16.671a2.992,2.992,0,0,0,2.989-2.989v-6.37a2.992,2.992,0,0,0-2.989-2.989h-1.88V44.1ZM133.3,55.178H117.851V50.027H133.3Zm-4.869-8.749h-5.715V44.1h2.51c.116,0,.23.018.347.018s.231-.014.347-.018h2.51Z" transform="translate(-58.579 -0.077)" fill="#3caf87"/>
    <path id="패스_22" data-name="패스 22" d="M88.6,10.125v-.019H88.58a7.813,7.813,0,0,0-7.813,7.813v.019h.019A7.814,7.814,0,0,0,88.6,10.125Z" transform="translate(-41.049)" fill="#3caf87"/>
    <path id="패스_23" data-name="패스 23" d="M52.514,96.608v0h0a1.951,1.951,0,0,0,1.951-1.951v0h0A1.951,1.951,0,0,0,52.514,96.608Z" transform="translate(-24.267 -50.221)" fill="#3caf87"/>
    <path id="패스_24" data-name="패스 24" d="M15.3,98.47a1.391,1.391,0,0,1-.868.281,1.434,1.434,0,0,1-.709-.162,1.192,1.192,0,0,1-.447-.425,1.829,1.829,0,0,1-.224-.557,2.747,2.747,0,0,1,0-1.18,1.836,1.836,0,0,1,.224-.558,1.192,1.192,0,0,1,.447-.425,1.43,1.43,0,0,1,.709-.162,1.376,1.376,0,0,1,.874.284,1.244,1.244,0,0,1,.447.824h1.353a2.389,2.389,0,0,0-.33-1.047,1.879,1.879,0,0,0-.655-.644,2.709,2.709,0,0,0-.822-.309,4.7,4.7,0,0,0-.914-.086,3.8,3.8,0,0,0-1.143.158,2.22,2.22,0,0,0-.859.49,2.129,2.129,0,0,0-.544.845,4.042,4.042,0,0,0,0,2.437,2.13,2.13,0,0,0,.544.849,2.224,2.224,0,0,0,.859.489,3.783,3.783,0,0,0,1.143.159,4.128,4.128,0,0,0,1.037-.123,2.5,2.5,0,0,0,.832-.378,1.95,1.95,0,0,0,.583-.663,2.5,2.5,0,0,0,.282-.953H15.759A1.248,1.248,0,0,1,15.3,98.47Z" transform="translate(0 -50.01)" fill="#3caf87"/>
    <path id="패스_25" data-name="패스 25" d="M30.387,96.586h-2.6V94.657H26.527V99.8h1.256V97.565h2.6V99.8h1.257V94.657H30.387Z" transform="translate(-8.832 -50.22)" fill="#3caf87"/>
    <rect id="사각형_58" data-name="사각형 58" width="1.257" height="5.139" transform="translate(23.66 44.436)" fill="#3caf87"/>
    <path id="패스_26" data-name="패스 26" d="M63.315,95.22a2.172,2.172,0,0,0-.884-.662,4.3,4.3,0,0,0-2.921,0,2.17,2.17,0,0,0-.884.662,2.4,2.4,0,0,0-.418.864,3.889,3.889,0,0,0,0,1.864,2.4,2.4,0,0,0,.418.864,2.164,2.164,0,0,0,.884.663,4.305,4.305,0,0,0,2.921,0,2.167,2.167,0,0,0,.884-.663,2.387,2.387,0,0,0,.418-.864,3.876,3.876,0,0,0,0-1.864A2.392,2.392,0,0,0,63.315,95.22Zm-.887,2.418a1.69,1.69,0,0,1-.269.557,1.335,1.335,0,0,1-.482.4,1.726,1.726,0,0,1-1.412,0,1.336,1.336,0,0,1-.483-.4,1.7,1.7,0,0,1-.269-.557,2.359,2.359,0,0,1,0-1.245,1.709,1.709,0,0,1,.269-.557,1.334,1.334,0,0,1,.483-.4,1.726,1.726,0,0,1,1.412,0,1.333,1.333,0,0,1,.482.4,1.7,1.7,0,0,1,.269.557,2.338,2.338,0,0,1,0,1.245Z" transform="translate(-27.582 -50.01)" fill="#3caf87"/>
    <path id="패스_27" data-name="패스 27" d="M78.295,95.22a2.17,2.17,0,0,0-.884-.662,4.3,4.3,0,0,0-2.921,0,2.168,2.168,0,0,0-.884.662,2.4,2.4,0,0,0-.418.864,3.889,3.889,0,0,0,0,1.864,2.394,2.394,0,0,0,.418.864,2.163,2.163,0,0,0,.884.663,4.305,4.305,0,0,0,2.921,0,2.164,2.164,0,0,0,.884-.663,2.407,2.407,0,0,0,.418-.864,3.9,3.9,0,0,0,0-1.864A2.412,2.412,0,0,0,78.295,95.22Zm-.887,2.418a1.7,1.7,0,0,1-.269.557,1.343,1.343,0,0,1-.483.4,1.726,1.726,0,0,1-1.412,0,1.335,1.335,0,0,1-.482-.4,1.69,1.69,0,0,1-.269-.557,2.337,2.337,0,0,1,0-1.245,1.7,1.7,0,0,1,.269-.557,1.333,1.333,0,0,1,.482-.4,1.726,1.726,0,0,1,1.412,0,1.341,1.341,0,0,1,.483.4,1.709,1.709,0,0,1,.269.557,2.36,2.36,0,0,1,0,1.245Z" transform="translate(-36.479 -50.01)" fill="#3caf87"/>
    <path id="패스_28" data-name="패스 28" d="M91.91,98.356l-1.373-3.7H88.692V99.8h1.218V95.679h.013L91.386,99.8h1.05L93.9,95.679h.013V99.8H95.13V94.657H93.284Z" transform="translate(-45.755 -50.22)" fill="#3caf87"/>
    <path id="패스_29" data-name="패스 29" d="M47.61,96.9l-1.2-2.238H44.935L46.982,98V99.8h1.256V98.069L47.61,96.9Z" transform="translate(-19.766 -50.22)" fill="#3caf87"/>
  </g>
</svg>
