<svg xmlns="http://www.w3.org/2000/svg" width="154.286" height="120" viewBox="0 0 154.286 120">
  <path id="mail_FILL0_wght200_GRAD0_opsz24" d="M133.846-640a13.411,13.411,0,0,1-9.882-3.964A13.411,13.411,0,0,1,120-653.846v-92.308a13.411,13.411,0,0,1,3.964-9.882A13.411,13.411,0,0,1,133.846-760H260.44a13.411,13.411,0,0,1,9.882,3.964,13.411,13.411,0,0,1,3.964,9.882v92.308a13.411,13.411,0,0,1-3.964,9.882A13.411,13.411,0,0,1,260.44-640Zm63.3-59.011-68.571-44.835v90a5.134,5.134,0,0,0,1.484,3.791,5.134,5.134,0,0,0,3.791,1.484H260.44a5.134,5.134,0,0,0,3.791-1.484,5.134,5.134,0,0,0,1.483-3.791v-90Zm0-9.561,65.934-42.857H131.209Zm-68.571-35.275v90a5.134,5.134,0,0,0,1.484,3.791,5.134,5.134,0,0,0,3.791,1.484h-5.275Z" transform="translate(-120 760)" fill="#7e8396"/>
</svg>
