<svg xmlns="http://www.w3.org/2000/svg" width="20" height="20" viewBox="0 0 20 20">
  <path id="forum_FILL0_wght0_GRAD0_opszNaN" d="M85.025-863.98a.969.969,0,0,1-.688-.35,1.026,1.026,0,0,1-.337-.7v-2.453H96.5V-876H99a.93.93,0,0,1,.675.351,1.064,1.064,0,0,1,.325.726V-860l-3.975-3.98Zm-5.025-1v-13.968a1.042,1.042,0,0,1,.325-.7A.93.93,0,0,1,81-880H93.975a.964.964,0,0,1,.7.338,1.023,1.023,0,0,1,.325.713v8.911a1.042,1.042,0,0,1-.325.7.951.951,0,0,1-.7.351H84Zm13.5-5.507v-8.01h-12v10.013l1.85-2Zm-12,0v0Z" transform="translate(-80 880)" fill="#7e8396"/>
</svg>
