<svg xmlns="http://www.w3.org/2000/svg" width="72" height="119.999" viewBox="0 0 72 119.999">
  <path id="phone_iphone_FILL0_wght200_GRAD0_opsz24" d="M249.692-760a9.388,9.388,0,0,1-6.917-2.775A9.388,9.388,0,0,1,240-769.693V-870.308a9.388,9.388,0,0,1,2.775-6.917A9.388,9.388,0,0,1,249.692-880h52.615a9.388,9.388,0,0,1,6.917,2.775A9.388,9.388,0,0,1,312-870.308v100.615a9.388,9.388,0,0,1-2.775,6.917A9.388,9.388,0,0,1,302.307-760ZM246-786.769v17.077a3.529,3.529,0,0,0,1.154,2.538A3.529,3.529,0,0,0,249.692-766h52.615a3.529,3.529,0,0,0,2.538-1.154A3.529,3.529,0,0,0,306-769.693V-786.77H246Zm30,15a4.431,4.431,0,0,0,3.237-1.379,4.431,4.431,0,0,0,1.379-3.237,4.431,4.431,0,0,0-1.379-3.237A4.43,4.43,0,0,0,276-781a4.431,4.431,0,0,0-3.237,1.379,4.431,4.431,0,0,0-1.379,3.237,4.431,4.431,0,0,0,1.379,3.237A4.431,4.431,0,0,0,276-771.77Zm-30-21h60V-859H246ZM246-865h60v-5.308a3.529,3.529,0,0,0-1.154-2.539A3.529,3.529,0,0,0,302.307-874H249.692a3.529,3.529,0,0,0-2.538,1.154A3.529,3.529,0,0,0,246-870.308Zm0,78.23v0ZM246-865v0Z" transform="translate(-240 880)" fill="#7e8396"/>
</svg>
