<svg xmlns="http://www.w3.org/2000/svg" width="22" height="22" viewBox="0 0 22 22">
  <path id="psychiatry_FILL0_wght400_GRAD0_opsz48" d="M130.083-818v-9.575h-.611a9.041,9.041,0,0,1-3.682-.759,9.607,9.607,0,0,1-3.071-2.154,9.313,9.313,0,0,1-2.032-3.222,10.743,10.743,0,0,1-.687-3.811V-840h2.393a8.981,8.981,0,0,1,3.626.759,9.908,9.908,0,0,1,3.117,2.154,9.728,9.728,0,0,1,1.665,2.355,10.352,10.352,0,0,1,.932,2.758,7.22,7.22,0,0,1,.513-.711q.281-.342.586-.683a9.907,9.907,0,0,1,3.117-2.154,9.055,9.055,0,0,1,3.657-.759H142v2.479a10.156,10.156,0,0,1-.733,3.811,9.893,9.893,0,0,1-2.079,3.223,9.737,9.737,0,0,1-3.1,2.138,9.062,9.062,0,0,1-3.619.744h-.55V-818Zm.031-11.465a9.915,9.915,0,0,0-.611-3.517,8.1,8.1,0,0,0-1.68-2.758,7.41,7.41,0,0,0-2.628-1.766,8.818,8.818,0,0,0-3.361-.635,10.836,10.836,0,0,0,.566,3.579,7.725,7.725,0,0,0,1.634,2.773,6.384,6.384,0,0,0,2.766,1.859A11.05,11.05,0,0,0,130.114-829.465Zm1.8,3.718a9.3,9.3,0,0,0,3.391-.6,7.081,7.081,0,0,0,2.628-1.735,7.746,7.746,0,0,0,1.65-2.758,10.59,10.59,0,0,0,.581-3.579,8.9,8.9,0,0,0-3.392.635,7.517,7.517,0,0,0-2.628,1.751,7.394,7.394,0,0,0-1.772,2.913A11.659,11.659,0,0,0,131.917-825.746ZM131.917-825.746ZM130.114-829.465Z" transform="translate(-120 840)" fill="#7e8396"/>
</svg>
