<svg xmlns="http://www.w3.org/2000/svg" width="23.737" height="23.999" viewBox="0 0 23.737 23.999">
  <path id="settings_FILL0_wght300_GRAD0_opsz24" d="M113.109-836l-.481-3.848a5.807,5.807,0,0,1-1.041-.476,6.708,6.708,0,0,1-.953-.656l-3.563,1.506-2.915-5.052,3.082-2.329q-.044-.282-.062-.566t-.018-.566q0-.27.018-.548t.062-.608l-3.082-2.329,2.915-5.028,3.551,1.494a8.088,8.088,0,0,1,.975-.662,6.434,6.434,0,0,1,1.019-.482l.493-3.848h5.83l.481,3.86a5.955,5.955,0,0,1,1.029.482,8.494,8.494,0,0,1,.929.65l3.6-1.494,2.915,5.028-3.131,2.366a2.957,2.957,0,0,1,.074.572q.006.266.006.536t-.012.523a3.65,3.65,0,0,1-.087.609l3.107,2.342-2.915,5.052-3.556-1.518a8.266,8.266,0,0,1-.957.662,5.777,5.777,0,0,1-1,.47l-.481,3.86Zm2.929-8.21a3.653,3.653,0,0,0,2.683-1.106A3.654,3.654,0,0,0,119.828-848a3.653,3.653,0,0,0-1.106-2.683,3.653,3.653,0,0,0-2.683-1.106,3.644,3.644,0,0,0-2.693,1.106,3.67,3.67,0,0,0-1.1,2.683,3.67,3.67,0,0,0,1.1,2.683A3.644,3.644,0,0,0,116.039-844.21Zm0-1.895a1.827,1.827,0,0,1-1.342-.553,1.827,1.827,0,0,1-.553-1.342,1.827,1.827,0,0,1,.553-1.342,1.827,1.827,0,0,1,1.342-.553,1.827,1.827,0,0,1,1.342.553,1.827,1.827,0,0,1,.553,1.342,1.827,1.827,0,0,1-.553,1.342A1.827,1.827,0,0,1,116.039-846.1ZM116.024-848Zm-1.263,10.1h2.482l.454-3.384a7.042,7.042,0,0,0,1.767-.718,7.806,7.806,0,0,0,1.544-1.2l3.138,1.319,1.244-2.147-2.74-2.065a5.168,5.168,0,0,0,.215-.962,7.913,7.913,0,0,0,.057-.952,7.718,7.718,0,0,0-.057-.952,4.937,4.937,0,0,0-.215-.938l2.764-2.089-1.244-2.147L121-852.787a6.721,6.721,0,0,0-1.519-1.2,6.528,6.528,0,0,0-1.791-.736l-.4-3.384h-2.507l-.418,3.371a6.6,6.6,0,0,0-1.785.7,7.526,7.526,0,0,0-1.562,1.215l-3.138-1.307-1.244,2.147,2.728,2.033a4.6,4.6,0,0,0-.221.935,7.934,7.934,0,0,0-.063,1.023,7.306,7.306,0,0,0,.063.967,5.525,5.525,0,0,0,.209.935l-2.716,2.065,1.244,2.147L111-843.2a7.076,7.076,0,0,0,1.538,1.21,7.143,7.143,0,0,0,1.81.724Z" transform="translate(-104.156 859.999)" fill="#7e8396"/>
</svg>
