<svg xmlns="http://www.w3.org/2000/svg" width="22" height="22" viewBox="0 0 22 22">
  <path id="nature_people_FILL0_wght0_GRAD0_opszNaN" d="M82.283-829.695a1.107,1.107,0,0,1-.825-.376,1.224,1.224,0,0,1-.357-.868,1.224,1.224,0,0,1,.357-.868,1.107,1.107,0,0,1,.825-.376,1.107,1.107,0,0,1,.825.376,1.224,1.224,0,0,1,.358.868,1.224,1.224,0,0,1-.358.868A1.107,1.107,0,0,1,82.283-829.695ZM81.109-818v-5.384H80v-4.776a.7.7,0,0,1,.263-.565.988.988,0,0,1,.651-.217h2.741a.982.982,0,0,1,.65.217.7.7,0,0,1,.261.565v4.776H83.493v3.647h10.12v-7.034H91.385a4.147,4.147,0,0,1-3.053-1.273,4.23,4.23,0,0,1-1.265-3.1,4.751,4.751,0,0,1,.756-2.547,4.038,4.038,0,0,1,2.131-1.708,5.145,5.145,0,0,1,1.513-3.314A4.257,4.257,0,0,1,94.534-840a4.211,4.211,0,0,1,3.053,1.288,5.3,5.3,0,0,1,1.526,3.314,4.038,4.038,0,0,1,2.131,1.708,4.751,4.751,0,0,1,.756,2.547,4.207,4.207,0,0,1-1.279,3.1,4.192,4.192,0,0,1-3.066,1.273H95.263v7.034h5.8V-818Zm10.276-10.508h6.27a2.7,2.7,0,0,0,1.87-.753,2.441,2.441,0,0,0,.825-1.882,2.67,2.67,0,0,0-.55-1.638,3.322,3.322,0,0,0-1.347-1.083l-.99-.434v-.9a2.973,2.973,0,0,0-.88-2.186,2.812,2.812,0,0,0-2.055-.883,2.791,2.791,0,0,0-2.049.883,2.985,2.985,0,0,0-.874,2.186v.9l-.99.434a3.322,3.322,0,0,0-1.348,1.083,2.67,2.67,0,0,0-.55,1.638,2.46,2.46,0,0,0,.811,1.882A2.652,2.652,0,0,0,91.385-828.508ZM94.548-833.4Z" transform="translate(-80 840)" fill="#7e8396"/>
</svg>
