<svg xmlns="http://www.w3.org/2000/svg" width="22" height="22" viewBox="0 0 22 22">
  <path id="diversity_3_FILL0_wght0_GRAD0_opszNaN" d="M40-778v-5.5a2.81,2.81,0,0,1,.513-1.7,1.5,1.5,0,0,1,1.237-.705h3.525a1.333,1.333,0,0,1,.813.292,2.4,2.4,0,0,1,.663.808,5.886,5.886,0,0,0,1.85,2.234,4.1,4.1,0,0,0,2.4.791,4.1,4.1,0,0,0,2.4-.791,6.092,6.092,0,0,0,1.875-2.234,2.481,2.481,0,0,1,.65-.808,1.281,1.281,0,0,1,.8-.292H60.25a1.5,1.5,0,0,1,1.237.705A2.81,2.81,0,0,1,62-783.5v5.5H55.5v-4.091a6.562,6.562,0,0,1-2.062,1.753,5.112,5.112,0,0,1-2.437.619,5.04,5.04,0,0,1-2.425-.619,6.891,6.891,0,0,1-2.075-1.753V-778Zm11-5.844a2.91,2.91,0,0,1-1.687-.567A4.1,4.1,0,0,1,48-785.975a4.058,4.058,0,0,0-.962-1.272,3.062,3.062,0,0,0-1.213-.653,4.515,4.515,0,0,1,2.275-1.581,8.711,8.711,0,0,1,2.9-.55,8.817,8.817,0,0,1,2.913.55A4.516,4.516,0,0,1,56.2-787.9a3.062,3.062,0,0,0-1.212.653,4.058,4.058,0,0,0-.963,1.272,4.1,4.1,0,0,1-1.313,1.563A2.946,2.946,0,0,1,51-783.844Zm-8-4.469a2.359,2.359,0,0,1-1.937-1.117,4.405,4.405,0,0,1-.812-2.664,4.392,4.392,0,0,1,.813-2.682,2.365,2.365,0,0,1,1.938-1.1,2.353,2.353,0,0,1,1.95,1.1,4.44,4.44,0,0,1,.8,2.682,4.453,4.453,0,0,1-.8,2.664A2.347,2.347,0,0,1,43-788.312Zm16,0a2.359,2.359,0,0,1-1.938-1.117,4.405,4.405,0,0,1-.812-2.664,4.392,4.392,0,0,1,.812-2.682,2.365,2.365,0,0,1,1.938-1.1,2.353,2.353,0,0,1,1.95,1.1,4.44,4.44,0,0,1,.8,2.682,4.453,4.453,0,0,1-.8,2.664A2.347,2.347,0,0,1,59-788.312Zm-8-4.125a2.359,2.359,0,0,1-1.937-1.117,4.405,4.405,0,0,1-.812-2.664,4.392,4.392,0,0,1,.813-2.682A2.365,2.365,0,0,1,51-800a2.353,2.353,0,0,1,1.95,1.1,4.44,4.44,0,0,1,.8,2.682,4.453,4.453,0,0,1-.8,2.664A2.347,2.347,0,0,1,51-792.437Z" transform="translate(-40 800)" fill="#7e8396"/>
</svg>
